{"title":"Australian Survivor - S03E05","uid":15710850,"size":1076483524,"categoryP":"video","categoryS":"hd___tv_shows","magnet":"?xt=urn:btih:6259a744c53cf176169174f8fbdd2a2d94d9f077&amp;dn=Australian+Survivor+-+S03E05&amp;tr=udp%3A%2F%2Ftracker.leechers-paradise.org%3A6969&amp;tr=udp%3A%2F%2Fzer0day.ch%3A1337&amp;tr=udp%3A%2F%2Fopen.demonii.com%3A1337&amp;tr=udp%3A%2F%2Ftracker.coppersurfer.tk%3A6969&amp;tr=udp%3A%2F%2Fexodus.desync.com%3A6969","seeders":50,"leechers":12,"uploader":"riseagainstMPAA1","files":1,"time":1472566494,"description":"I couldn't get the file size down anymore without affecting the quality. so 1GB it is. And sorry for the crap upload speed, we here in Australia have the shittest internet in the world\r\n\r\n\r\nHope all you pirates who live abroad are enjoying Australian Survivor as much as us Aussies do, hopefully they do another season :)\r\n\r\n\r\nleave a comment if you like it :)\r\n\r\n\r\nOr you can chat about it on here -  \nhttps://forums.whirlpool.net.au/forum-replies.cfm?t=2472294\r\n\r\n\r\n\r\nWHERE ARE YOU BULLROUT ????????????\r\n\r\n\r\n\r\nSCREENSHOTS(SPOILERS) - https://i.imgur.com/seIxy4u.jpg\r\n\r\n\r\n=================================================\r\n\r\n\r\nAustralian Survivor S03E05\r\n\r\n\r\n\r\n\r\nAustralian Survivor - S03E05.avi\r\nFormat                                   : AVI\r\nFormat/Info                              : Audio Video Interleave\r\nFile size                                : 1.00 GiB\r\nDuration                                 : 1 h 14 min\r\nOverall bit rate                         : 1 928 kb/s\r\nWriting library                          : VirtualDub build 35491/release\r\n\r\nVideo\r\nID                                       : 0\r\nFormat                                   : MPEG-4 Visual\r\nFormat profile                           : Advanced   \r\nFormat settings, BVOP                    : 2\r\nFormat settings, QPel                    : No\r\nFormat settings, GMC                     : No warppoints\r\nFormat settings, Matrix                  : Default (H.263)\r\nMuxing mode                              : Packed bitstream\r\nCodec ID                                 : XVID\r\nCodec ID/Hint                            : XviD\r\nDuration                                 : 1 h 14 min\r\nBit rate                                 : 1 823 kb/s\r\nWidth                                    : 1 024 pixels\r\nHeight                                   : 576 pixels\r\nDisplay aspect ratio                     : 16:9\r\nFrame rate                               : 25.000 FPS\r\nColor space                              : YUV\r\nChroma subsampling                       : 4:2:0\r\nBit depth                                : 8 bits\r\nScan type                                : Progressive\r\nCompression mode                         : Lossy\r\nBits/(Pixel*Frame)                       : 0.124\r\nStream size                              : 971 MiB (95%)\r\nWriting library                          : XviD 73\r\n\r\nAudio\r\nID                                       : 1\r\nFormat                                   : AC-3\r\nFormat/Info                              : Audio Coding 3\r\nMode extension                           : CM (complete main)\r\nFormat settings, Endianness              : Big\r\nCodec ID                                 : 2000\r\nDuration                                 : 1 h 14 min\r\nBit rate mode                            : Constant\r\nBit rate                                 : 96.0 kb/s\r\nChannel(s)                               : 2 channels\r\nChannel positions                        : Front: L R\r\nSampling rate                            : 44.1 kHz\r\nFrame rate                               : 28.711 FPS (1536 spf)\r\nCompression mode                         : Lossy\r\nStream size                              : 50.9 MiB (5%)\r\nAlignment                                : Aligned on interleaves\r\nInterleave, duration                     : 40  ms (1.00 video frame)\r\nInterleave, preload duration             : 522  ms","torrent":{"xt":"urn:btih:6259a744c53cf176169174f8fbdd2a2d94d9f077","amp;dn":"Australian+Survivor+-+S03E05","amp;tr":["udp%3A%2F%2Ftracker.leechers-paradise.org%3A6969","udp%3A%2F%2Fzer0day.ch%3A1337","udp%3A%2F%2Fopen.demonii.com%3A1337","udp%3A%2F%2Ftracker.coppersurfer.tk%3A6969","udp%3A%2F%2Fexodus.desync.com%3A6969"],"infoHash":"6259a744c53cf176169174f8fbdd2a2d94d9f077","infoHashBuffer":{"type":"Buffer","data":[98,89,167,68,197,60,241,118,22,145,116,248,251,221,42,45,148,217,240,119]},"announce":[],"urlList":[]}}